<svg xmlns="http://www.w3.org/2000/svg" xmlns:xlink="http://www.w3.org/1999/xlink" width="62" height="60" viewBox="0 0 62 60"><defs><path id="i5ifa" d="M637.41 47.5a5.63 5.63 0 0 0-5.36 3.86l-8.78-.89a10.74 10.74 0 0 0-4.31-8.48l5.88-9.98a5.65 5.65 0 1 0-2.08-1.27l-5.89 9.98a10.9 10.9 0 0 0-11.46 1.57l-5.06-4.77a5.65 5.65 0 1 0-1.64 1.79l5.06 4.76a10.91 10.91 0 0 0-1.93 8.7l-10.35 3.5a5.65 5.65 0 1 0 .82 2.9v-.59l10.35-3.5a10.73 10.73 0 0 0 9.82 6.26c.45 0 .82 0 1.2-.08l1.93 8.56a5.52 5.52 0 0 0-3.2 5.06 5.65 5.65 0 1 0 5.65-5.65H618l-1.94-8.56a10.99 10.99 0 0 0 7-7.97l8.78.9a5.58 5.58 0 0 0 5.58 4.98 5.65 5.65 0 0 0 5.66-5.65 5.71 5.71 0 0 0-5.66-5.44z"/></defs><g><g transform="translate(-581 -21)"><use fill="#fff" xlink:href="#i5ifa"/></g></g></svg>